<svg id="图层_1" data-name="图层 1" xmlns="http://www.w3.org/2000/svg" viewBox="0 0 1351 621.39"><defs><style>.cls-1{fill:#fff;}.cls-2{fill:none;}</style></defs><title>企加云_logo_v2_横版组合线稿_20180529</title><path class="cls-1" d="M334.76,402.84H296l4.39,22.42q15.33-5.67,23.74-5.68H521.93L518,397q-17.24,5.88-23.95,5.89H423.34V357.1h49.19L468.15,335c-8.55,4.9-15.34,4.33-20.38,4.33H423.34V283.38L388.57,293v4.21q6.51,2.94,6.52,9.87v95.72H334.76Z"/><path class="cls-1" d="M370.36,382h.12v-24.1h0v-1h.08V336.87h-.29l-79.58.14c-12.76-2.95-41-13.13-42.58-45.87-2-42.3,50.09-51.42,73.14-46.38,0,0,14.17-60.43,83.23-61.55s83.92,54.27,84.59,61.55c0,0,70.36-7.84,74.43,47.5,2.15,29.33-21.13,40.63-43.56,44.75l-41.42-2,4.19,21.85h29.46l2.86-.25v.25h10.84a80.22,80.22,0,0,0,9.19-2,96.13,96.13,0,0,0,25.36-10.08c15.6-9.15,32.14-23.81,33-47.17,2.1-51.85-54.89-65-82.79-67.54,0,0-23.65-59.89-107.22-61-67.59,0-99.61,53.4-102.4,61,0,0-90.22,1.48-83.5,74.57,1.78,13.53,11.59,24.5,21.86,33,11.75,9.63,26.7,15.91,39.68,18.93l1.22.3h24v.11h43.46v28"/><path class="cls-1" d="M699.3,193.84c-5.17,0-8.44,7.18-10.17,10.33S670,241.82,670,241.82l-21.42.06s18.41-37.34,20.6-41.55,5.83-16.24,30.59-16.24h40.79c24.76,0,28.4,12,30.59,16.24s20.6,41.55,20.6,41.55l-21.41-.06s-17.4-34.51-19.14-37.65-5-10.33-10.17-10.33Z"/><polygon class="cls-1" points="648.58 333.78 648.58 323.63 663.75 323.63 663.75 252.26 685.59 252.26 685.59 323.63 707.09 323.63 707.09 220.09 728.93 220.09 728.93 262.86 790.51 262.86 790.51 273.28 728.93 273.28 728.93 323.63 790.74 323.63 790.74 333.78 648.58 333.78"/><path class="cls-1" d="M843.33,333.32H819L835,202.22H819v-9.69h18l1.32-13.68h22.88l-1.63,13.68h10.08q12.7,0,18.38,7.94A25.23,25.23,0,0,1,892.49,211a49.66,49.66,0,0,1,.31,7.12V307.5q0,11-4.11,17-6,8.85-15.59,8.85H851.46l1.35-9.05h8.39c5.79-2.3,8.3-10.65,8.3-19V212.42c0-5-.07-6.87-2.09-8.76a4.4,4.4,0,0,0-3.66-1.44h-6.08Zm57.76-19.62V197.64q0-8,3.8-12.41a12.54,12.54,0,0,1,10-4.56h31.88q15.12,0,15.12,18.07V315.16q0,18.16-14.82,18.16H917.62q-6,0-8.77-1.46-6-3-7.37-10.67A50.07,50.07,0,0,1,901.09,313.7Zm21.07-109.49V309.32c0,11,1.52,14.59,5,14.59h8c3.78,0,5.69-2,5.69-12.85V202.2c0-11.07-2.68-11.93-5.69-11.93h-8C923.89,190.27,922.16,193.33,922.16,204.21Z"/><path class="cls-1" d="M1107.2,303.85c-1.59-7-10.18-40.81-10.18-40.81h23.76l9.32,38.25a66.1,66.1,0,0,1,1.4,12.69,18.58,18.58,0,0,1-7.6,15.33q-5.26,4.1-16.13,4.1h-92.29a22.43,22.43,0,0,1-14.81-5q-7.3-6-7.3-16.89a42.94,42.94,0,0,1,1.17-9L1007,246.83H990.74V237H1133.6v9.88H1030.79S1019.44,296,1018.3,302s-5.2,21.42,2.53,21.42h84.07C1113,323.45,1108.55,309.89,1107.2,303.85Zm-113.75-110v-9.6h137.74v9.6Z"/><rect class="cls-1" x="648.83" y="376.85" width="14.42" height="42.88"/><path class="cls-1" d="M687.11,419.73v-52.2H670.8v-7h46.91v7h-16.3v52.2Z"/><path class="cls-1" d="M725.9,419.73V376.85h13.6v6.5c1.67-3,3.22-5.05,4.63-6a8.06,8.06,0,0,1,4.66-1.46,14.18,14.18,0,0,1,7.47,2.34l-2.5,6.75a10.43,10.43,0,0,0-5.33-1.58,6.89,6.89,0,0,0-4.28,1.44,7.73,7.73,0,0,0-2.71,4,28.58,28.58,0,0,0-1.21,8.48v22.45Z"/><path class="cls-1" d="M921.26,419.73V376.85h13.61v6.5c1.67-3,3.21-5.05,4.62-6a8.1,8.1,0,0,1,4.67-1.46,14.21,14.21,0,0,1,7.47,2.34L949.12,385a10.38,10.38,0,0,0-5.33-1.58,6.91,6.91,0,0,0-4.28,1.44,7.78,7.78,0,0,0-2.7,4,28.26,28.26,0,0,0-1.21,8.48v22.45Z"/><rect class="cls-1" x="762.65" y="376.85" width="14.3" height="42.88"/><rect class="cls-1" x="762.65" y="360.54" width="14.3" height="6.52"/><rect class="cls-1" x="648.89" y="360.54" width="14.3" height="6.52"/><path class="cls-1" d="M807.77,418.49a10.26,10.26,0,0,1-5,1.24q-8.84,0-13.68-6.38a24.55,24.55,0,0,1-4.85-15.3,28.52,28.52,0,0,1,2.22-11.33,17.79,17.79,0,0,1,6.44-8,17.42,17.42,0,0,1,9.91-2.83A15.37,15.37,0,0,1,815.37,382v-5.17h6.7v37.07c0,6.68-.68,11.4-2,14.19a14.91,14.91,0,0,1-6.46,6.6,22.37,22.37,0,0,1-10.89,2.42q-7.66,0-12.39-3.45t-4.57-10.39l7.07,1a6.77,6.77,0,0,0,2.46,4.76c1.81,1.35,2.32,1.68,5.45,1.68,5.77,0,7.06-6.42,7.06-9.17Zm0-20.68s0-15.91-4.39-15.91c-4.8,0-4.8,15.91-4.8,15.91s0,15.91,4.92,15.91C807.77,413.72,807.77,397.81,807.77,397.81Z"/><path class="cls-1" d="M853.12,418.49a10.26,10.26,0,0,1-5,1.24q-8.85,0-13.69-6.38a24.55,24.55,0,0,1-4.85-15.3,28.52,28.52,0,0,1,2.23-11.33,17.73,17.73,0,0,1,6.44-8,17.4,17.4,0,0,1,9.91-2.83A15.36,15.36,0,0,1,860.71,382v-5.17h6.71v37.07c0,6.68-.68,11.4-2,14.19a14.85,14.85,0,0,1-6.46,6.6A22.35,22.35,0,0,1,848,437.13q-7.68,0-12.4-3.45t-4.56-10.39l7.06,1a6.74,6.74,0,0,0,2.47,4.76c1.8,1.35,2.32,1.68,5.44,1.68,5.78,0,7.07-6.42,7.07-9.17Zm0-20.68s0-15.91-4.4-15.91c-4.79,0-4.79,15.91-4.79,15.91s0,15.91,4.91,15.91C853.12,413.72,853.12,397.81,853.12,397.81Z"/><path class="cls-1" d="M900.19,405.38l14.06,1.47a18.26,18.26,0,0,1-6.58,10.22q-4.8,3.63-12.27,3.63-9.42,0-14.92-5.79T875,398.66q0-10.83,5.57-16.8a18.87,18.87,0,0,1,14.46-6,18.32,18.32,0,0,1,14,5.86q5.46,5.85,5.46,16.47c0,.43,0,1.08,0,1.94H889.27s.61,14.57,6.17,14.57C900.27,414.72,900.19,405.38,900.19,405.38Zm-10.92-11.21h10.92s.08-12.31-5.11-12.31S889.27,394.17,889.27,394.17Z"/><path class="cls-1" d="M959.18,419.73v-8.28h8.28v8.28Z"/><path class="cls-1" d="M1000.08,403.41l12.27,1.54q-1.17,7.4-6,11.57a17.46,17.46,0,0,1-11.85,4.18q-8.81,0-14.16-5.75T975,398.45a29.73,29.73,0,0,1,2.3-12.15,16,16,0,0,1,7-7.81,20.77,20.77,0,0,1,10.24-2.61q7,0,11.42,3.54a16.22,16.22,0,0,1,5.7,10l-11.59,1.82s1.1-9.41-5.25-9.41-5.52,16.39-5.52,16.39-.79,16.47,5.12,16.47S1000.08,403.41,1000.08,403.41Z"/><path class="cls-1" d="M1019.64,398.29q0-11.91,6.62-17.64a20,20,0,0,1,13.49-4.77,19.25,19.25,0,0,1,14.46,5.8q5.61,5.79,5.61,16c0,5.51-.83,9.86-2.49,13a17.57,17.57,0,0,1-7.22,7.37,21.07,21.07,0,0,1-10.36,2.62q-9,0-14.56-5.77T1019.64,398.29Zm25.87-.24s.83-16.15-5.76-16.15-5.8,16.39-5.8,16.39-.79,16.43,5.8,16.43S1045.51,398.05,1045.51,398.05Z"/><path class="cls-1" d="M1116.3,375.88q-8.16,0-13.25,7.51a10.57,10.57,0,0,0-4.3-5.53,14.1,14.1,0,0,0-7.81-2,15,15,0,0,0-7.63,1.92c-2.24,1.28-4,3-1.76,5.07v-6h-14.34v42.88h14.31V397.48s.39-15.3,7.8-15.3c5.3,0,4.5,9.69,4.5,9.69v27.86h14.3V394.82s.54-12.64,6.56-12.64c4.43,0,4.37,10.54,4.37,10.54v27h14.3V390.3S1133.35,375.88,1116.3,375.88Z"/><rect id="_切片_" data-name="&lt;切片&gt;" class="cls-2" x="146" y="111.39" width="1059" height="378"/></svg>